<mxfile host="app.diagrams.net" modified="2020-08-29T09:54:23.730Z" agent="5.0 (Macintosh; Intel Mac OS X 10_15_6) AppleWebKit/537.36 (KHTML, like Gecko) Chrome/84.0.4147.135 Safari/537.36" etag="FpIOA45fe35x6i9VIYWr" version="13.6.5" type="github">
  <diagram id="zsNzX87QLFjyHoXzqY_S" name="Page-1">
    <mxGraphModel dx="1186" dy="659" grid="1" gridSize="10" guides="1" tooltips="1" connect="1" arrows="1" fold="1" page="1" pageScale="1" pageWidth="827" pageHeight="1169" math="0" shadow="0">
      <root>
        <mxCell id="0" />
        <mxCell id="1" parent="0" />
        <mxCell id="sEA5e1uq30AUpPjvAuhy-2" value="A" style="ellipse;whiteSpace=wrap;html=1;aspect=fixed;" vertex="1" parent="1">
          <mxGeometry x="330" y="60" width="60" height="60" as="geometry" />
        </mxCell>
        <mxCell id="sEA5e1uq30AUpPjvAuhy-3" value="B" style="ellipse;whiteSpace=wrap;html=1;aspect=fixed;" vertex="1" parent="1">
          <mxGeometry x="220" y="140" width="60" height="60" as="geometry" />
        </mxCell>
        <mxCell id="sEA5e1uq30AUpPjvAuhy-4" value="C" style="ellipse;whiteSpace=wrap;html=1;aspect=fixed;direction=south;" vertex="1" parent="1">
          <mxGeometry x="170" y="230" width="50" height="50" as="geometry" />
        </mxCell>
        <mxCell id="sEA5e1uq30AUpPjvAuhy-6" value="" style="ellipse;whiteSpace=wrap;html=1;aspect=fixed;" vertex="1" parent="1">
          <mxGeometry x="520" y="240" width="50" height="50" as="geometry" />
        </mxCell>
        <mxCell id="sEA5e1uq30AUpPjvAuhy-7" value="" style="ellipse;whiteSpace=wrap;html=1;aspect=fixed;" vertex="1" parent="1">
          <mxGeometry x="380" y="240" width="50" height="50" as="geometry" />
        </mxCell>
        <mxCell id="sEA5e1uq30AUpPjvAuhy-8" value="" style="ellipse;whiteSpace=wrap;html=1;aspect=fixed;" vertex="1" parent="1">
          <mxGeometry x="250" y="230" width="50" height="50" as="geometry" />
        </mxCell>
        <mxCell id="sEA5e1uq30AUpPjvAuhy-9" value="" style="ellipse;whiteSpace=wrap;html=1;aspect=fixed;" vertex="1" parent="1">
          <mxGeometry x="450" y="140" width="50" height="50" as="geometry" />
        </mxCell>
        <mxCell id="sEA5e1uq30AUpPjvAuhy-10" value="D" style="ellipse;whiteSpace=wrap;html=1;aspect=fixed;" vertex="1" parent="1">
          <mxGeometry x="80" y="330" width="50" height="50" as="geometry" />
        </mxCell>
        <mxCell id="sEA5e1uq30AUpPjvAuhy-11" value="E" style="ellipse;whiteSpace=wrap;html=1;aspect=fixed;" vertex="1" parent="1">
          <mxGeometry x="150" y="330" width="50" height="50" as="geometry" />
        </mxCell>
        <mxCell id="sEA5e1uq30AUpPjvAuhy-12" value="" style="ellipse;whiteSpace=wrap;html=1;aspect=fixed;" vertex="1" parent="1">
          <mxGeometry x="220" y="330" width="50" height="50" as="geometry" />
        </mxCell>
        <mxCell id="sEA5e1uq30AUpPjvAuhy-13" value="" style="ellipse;whiteSpace=wrap;html=1;aspect=fixed;" vertex="1" parent="1">
          <mxGeometry x="290" y="330" width="50" height="50" as="geometry" />
        </mxCell>
        <mxCell id="sEA5e1uq30AUpPjvAuhy-14" value="" style="ellipse;whiteSpace=wrap;html=1;aspect=fixed;" vertex="1" parent="1">
          <mxGeometry x="414" y="330" width="50" height="50" as="geometry" />
        </mxCell>
        <mxCell id="sEA5e1uq30AUpPjvAuhy-15" value="" style="ellipse;whiteSpace=wrap;html=1;aspect=fixed;" vertex="1" parent="1">
          <mxGeometry x="480" y="330" width="50" height="50" as="geometry" />
        </mxCell>
        <mxCell id="sEA5e1uq30AUpPjvAuhy-16" value="" style="endArrow=classic;html=1;exitX=0;exitY=1;exitDx=0;exitDy=0;" edge="1" parent="1" source="sEA5e1uq30AUpPjvAuhy-2" target="sEA5e1uq30AUpPjvAuhy-3">
          <mxGeometry width="50" height="50" relative="1" as="geometry">
            <mxPoint x="280" y="160" as="sourcePoint" />
            <mxPoint x="260" y="80" as="targetPoint" />
          </mxGeometry>
        </mxCell>
        <mxCell id="sEA5e1uq30AUpPjvAuhy-17" value="" style="endArrow=classic;html=1;entryX=0;entryY=0;entryDx=0;entryDy=0;exitX=0.21;exitY=0.949;exitDx=0;exitDy=0;exitPerimeter=0;" edge="1" parent="1" source="sEA5e1uq30AUpPjvAuhy-3" target="sEA5e1uq30AUpPjvAuhy-4">
          <mxGeometry width="50" height="50" relative="1" as="geometry">
            <mxPoint x="240" y="190" as="sourcePoint" />
            <mxPoint x="186.2587461385187" y="222.28059913597636" as="targetPoint" />
          </mxGeometry>
        </mxCell>
        <mxCell id="sEA5e1uq30AUpPjvAuhy-55" value="" style="endArrow=classic;html=1;entryX=1;entryY=0;entryDx=0;entryDy=0;" edge="1" parent="1" target="sEA5e1uq30AUpPjvAuhy-10">
          <mxGeometry width="50" height="50" relative="1" as="geometry">
            <mxPoint x="180" y="280" as="sourcePoint" />
            <mxPoint x="140" y="320" as="targetPoint" />
          </mxGeometry>
        </mxCell>
      </root>
    </mxGraphModel>
  </diagram>
</mxfile>
